<?xml version="1.0" standalone="no"?>
<!DOCTYPE svg PUBLIC "-//W3C//DTD SVG 20010904//EN"
 "http://www.w3.org/TR/2001/REC-SVG-20010904/DTD/svg10.dtd">
<svg version="1.0" xmlns="http://www.w3.org/2000/svg"
 width="225.000000pt" height="225.000000pt" viewBox="0 0 225.000000 225.000000"
 preserveAspectRatio="xMidYMid meet">
<metadata>
Created by potrace 1.11, written by Peter Selinger 2001-2013
</metadata>
<g transform="translate(0.000000,225.000000) scale(0.100000,-0.100000)"
fill="#000000" stroke="none">
<path d="M955 2235 c-237 -39 -430 -135 -605 -302 -261 -248 -388 -610 -336
-958 38 -258 138 -458 320 -641 384 -386 971 -440 1429 -133 91 62 236 211
301 311 123 189 179 378 180 608 1 314 -106 573 -328 796 -139 139 -287 229
-468 284 -149 45 -345 59 -493 35z m355 -67 c118 -21 253 -70 345 -126 270
-162 452 -419 511 -721 19 -99 19 -306 0 -396 -71 -331 -274 -598 -571 -748
-165 -83 -300 -111 -505 -104 -179 5 -273 28 -425 102 -313 151 -514 416 -585
770 -16 76 -16 269 -1 355 48 272 211 532 433 690 73 51 215 122 298 148 153
47 346 59 500 30z"/>
<path d="M1005 2144 c-156 -23 -302 -75 -424 -151 -90 -56 -226 -183 -286
-268 -143 -199 -216 -474 -187 -697 19 -140 32 -192 46 -178 8 8 7 13 -3 19
-9 6 -11 16 -6 27 5 13 9 15 12 7 3 -8 22 -13 47 -13 l42 0 -4 -40 c-2 -22 0
-40 6 -40 13 0 23 55 17 88 -4 22 -4 23 3 7 l9 -20 5 20 c2 11 8 -13 12 -53 4
-39 14 -84 22 -100 7 -15 14 -33 14 -39 0 -24 43 -143 51 -143 5 0 9 -8 9 -18
0 -11 9 -27 20 -37 10 -9 18 -20 17 -24 -1 -3 12 -27 29 -53 22 -34 34 -44 42
-36 8 8 9 5 5 -11 -7 -27 11 -27 30 0 13 18 24 20 106 18 93 -2 117 4 91 22
-13 9 -13 10 0 6 8 -2 14 -13 12 -23 -2 -10 -5 -30 -6 -44 -2 -14 -6 -32 -8
-40 -3 -8 -3 -12 -1 -7 3 4 10 4 15 1 8 -5 9 5 5 30 -3 22 -2 34 4 31 5 -4 9
3 9 14 0 42 96 92 115 61 5 -8 12 -7 23 2 13 11 14 11 8 0 -10 -16 13 -45 30
-38 7 3 16 1 19 -4 4 -6 24 -10 46 -10 l39 0 0 42 c0 23 3 39 6 35 3 -3 6 -33
6 -66 0 -34 4 -61 9 -61 5 0 9 21 9 48 0 34 3 43 10 32 5 -8 10 -26 10 -40 0
-19 3 -21 9 -10 5 8 11 57 13 108 l4 92 -25 0 c-35 0 -119 23 -157 43 -114 59
-174 169 -174 323 0 170 82 284 310 429 41 26 76 48 77 49 2 2 8 61 14 132 9
104 17 143 41 202 37 89 93 163 143 186 33 16 38 16 59 2 79 -51 48 -338 -52
-492 -39 -59 -119 -141 -160 -163 -20 -11 -22 -19 -22 -111 l0 -100 27 0 c73
0 163 -84 179 -167 10 -53 -1 -157 -21 -186 -9 -14 -13 -32 -9 -38 4 -7 3 -9
-3 -6 -6 4 -19 -3 -29 -15 -36 -40 -97 -78 -125 -78 -35 0 -36 -6 -42 -155 -2
-60 -2 -98 0 -82 2 15 8 25 12 22 5 -2 12 14 17 38 l8 42 6 -45 c4 -25 8 -37
8 -27 2 16 21 17 242 17 160 0 240 3 240 10 0 7 29 10 80 8 46 -2 80 -7 79
-13 -1 -5 -5 -9 -11 -7 -5 1 -7 -2 -3 -8 3 -5 2 -10 -4 -10 -5 0 -12 4 -16 9
-3 6 -14 9 -24 8 -17 -1 -18 -3 -6 -21 12 -17 12 -21 -3 -33 -13 -11 -10 -11
13 1 42 20 195 185 195 209 0 3 13 25 29 49 37 55 85 172 112 273 18 66 22
108 22 240 1 142 -2 171 -26 259 -119 444 -501 748 -957 761 -69 2 -138 1
-155 -1z m-868 -1226 c-3 -8 -6 -5 -6 6 -1 11 2 17 5 13 3 -3 4 -12 1 -19z
m1823 -371 c0 -2 -10 -12 -21 -23 -22 -19 -22 -19 -8 4 12 19 29 30 29 19z
m-783 -49 c-3 -8 -6 -5 -6 6 -1 11 2 17 5 13 3 -3 4 -12 1 -19z m-80 -30 c-3
-8 -6 -5 -6 6 -1 11 2 17 5 13 3 -3 4 -12 1 -19z m761 -3 c-3 -3 -9 2 -12 12
-6 14 -5 15 5 6 7 -7 10 -15 7 -18z m-917 -18 c-13 -13 -26 -3 -16 12 3 6 11
8 17 5 6 -4 6 -10 -1 -17z m949 20 c0 -11 -38 -46 -44 -40 -9 10 -7 25 3 19 5
-3 14 1 21 9 12 14 20 19 20 12z m-1110 -11 c0 -3 -4 -8 -10 -11 -5 -3 -10 -1
-10 4 0 6 5 11 10 11 6 0 10 -2 10 -4z m1025 -67 c11 -17 -1 -21 -15 -4 -8 9
-8 15 -2 15 6 0 14 -5 17 -11z"/>
<path d="M1314 1791 c-36 -22 -86 -97 -107 -162 -18 -52 -33 -169 -23 -169 14
0 123 89 156 126 43 50 70 110 70 160 0 65 -35 82 -96 45z"/>
<path d="M1055 1223 c-44 -24 -99 -60 -122 -79 -104 -85 -146 -242 -97 -359
32 -78 151 -155 238 -155 l43 0 7 98 c8 136 10 251 4 258 -12 11 -89 -38 -109
-69 -16 -25 -19 -43 -15 -85 2 -30 12 -64 20 -77 25 -38 19 -41 -15 -9 -94 89
-90 212 8 294 21 17 57 36 80 42 l42 12 3 84 c2 46 1 85 -2 87 -3 2 -41 -17
-85 -42z"/>
<path d="M1160 806 l0 -175 35 21 c74 43 104 111 91 201 -8 53 -57 113 -98
123 l-28 6 0 -176z"/>
<path d="M151 814 c0 -11 3 -14 6 -6 3 7 2 16 -1 19 -3 4 -6 -2 -5 -13z"/>
<path d="M179 748 c4 -28 6 -29 9 -9 2 13 0 27 -5 32 -6 6 -7 -3 -4 -23z"/>
<path d="M195 710 c-3 -5 -1 -10 4 -10 6 0 11 5 11 10 0 6 -2 10 -4 10 -3 0
-8 -4 -11 -10z"/>
<path d="M226 652 c-3 -5 1 -9 9 -9 8 0 12 4 9 9 -3 4 -7 8 -9 8 -2 0 -6 -4
-9 -8z"/>
<path d="M937 413 c-3 -4 1 -17 9 -28 14 -19 15 -19 11 2 -4 26 -13 38 -20 26z"/>
<path d="M923 383 c-18 -7 -16 -20 2 -20 8 0 15 6 15 14 0 7 -1 13 -2 12 -2 0
-9 -3 -15 -6z"/>
<path d="M551 364 c0 -11 3 -14 6 -6 3 7 2 16 -1 19 -3 4 -6 -2 -5 -13z"/>
<path d="M1167 341 c-4 -17 -3 -21 5 -13 5 5 8 16 6 23 -3 8 -7 3 -11 -10z"/>
<path d="M885 340 c3 -5 8 -10 11 -10 2 0 4 5 4 10 0 6 -5 10 -11 10 -5 0 -7
-4 -4 -10z"/>
<path d="M545 311 c10 -10 66 -11 60 -1 -4 6 -19 9 -35 8 -16 -1 -27 -4 -25
-7z"/>
<path d="M1066 295 c-9 -26 -7 -32 5 -12 6 10 9 21 6 23 -2 3 -7 -2 -11 -11z"/>
<path d="M1600 299 c0 -5 5 -7 10 -4 6 3 10 8 10 11 0 2 -4 4 -10 4 -5 0 -10
-5 -10 -11z"/>
<path d="M850 285 c0 -8 4 -15 10 -15 5 0 7 7 4 15 -4 8 -8 15 -10 15 -2 0 -4
-7 -4 -15z"/>
<path d="M1670 285 c0 -7 30 -13 34 -7 3 4 -4 9 -15 9 -10 1 -19 0 -19 -2z"/>
<path d="M770 266 c0 -2 8 -10 18 -17 15 -13 16 -12 3 4 -13 16 -21 21 -21 13z"/>
<path d="M1603 233 c0 -8 6 -9 19 -2 10 5 18 11 18 12 0 2 -8 3 -18 3 -10 0
-19 -6 -19 -13z"/>
<path d="M1089 223 c-13 -16 -12 -17 4 -4 16 13 21 21 13 21 -2 0 -10 -8 -17
-17z"/>
</g>
</svg>
