<?xml version="1.0" standalone="no"?>
<!DOCTYPE svg PUBLIC "-//W3C//DTD SVG 20010904//EN"
 "http://www.w3.org/TR/2001/REC-SVG-20010904/DTD/svg10.dtd">
<svg version="1.0" xmlns="http://www.w3.org/2000/svg"
 width="512.000000pt" height="512.000000pt" viewBox="0 0 512.000000 512.000000"
 preserveAspectRatio="xMidYMid meet">
<metadata>
Created by potrace 1.11, written by Peter Selinger 2001-2013
</metadata>
<g transform="translate(0.000000,512.000000) scale(0.100000,-0.100000)"
fill="#000000" stroke="none">
<path d="M1087 4914 c-1 -1 -29 -4 -62 -7 -87 -9 -198 -42 -295 -89 -47 -22
-87 -43 -90 -47 -3 -3 -25 -19 -49 -36 -61 -41 -164 -146 -215 -219 -75 -107
-106 -174 -142 -311 l-27 -100 -1 -1515 c-1 -833 2 -1544 6 -1580 10 -79 51
-217 85 -285 63 -125 167 -254 270 -333 29 -22 50 -42 47 -46 -2 -3 -1 -4 2
-1 7 5 61 -20 84 -40 36 -29 198 -83 310 -101 60 -10 3027 -10 3110 0 36 4 69
10 73 13 5 3 21 7 37 9 43 7 143 48 215 88 129 73 241 177 325 305 44 66 106
195 115 240 2 9 11 48 21 86 15 62 17 138 18 685 1 338 5 620 9 626 3 6 3 14
-1 18 -9 10 -9 1577 1 1583 4 2 4 9 0 16 -3 6 -8 56 -9 111 -2 86 -12 157 -37
263 -12 49 -77 184 -120 251 -104 158 -286 301 -463 362 -158 55 -75 53 -1707
54 -830 1 -1509 1 -1510 0z m1579 -929 c39 -3 82 -8 95 -10 13 -3 44 -8 69
-11 25 -3 52 -7 60 -9 8 -2 31 -7 50 -10 63 -11 333 -66 415 -86 124 -29 116
-3 113 -390 -4 -393 2 -378 -123 -350 -27 6 -61 14 -75 17 -14 2 -33 7 -42 10
-10 3 -29 7 -42 10 -23 4 -301 68 -427 98 l-56 13 1 -924 c1 -509 -1 -927 -3
-929 -2 -2 -5 -15 -7 -27 -3 -32 -68 -135 -108 -171 -99 -91 -157 -108 -366
-110 -91 -1 -187 2 -215 7 -119 21 -220 99 -278 217 -29 59 -32 73 -32 160 0
87 3 101 32 161 56 114 161 196 278 216 28 5 124 8 215 7 134 -1 176 -5 222
-21 l57 -20 0 1070 c0 589 4 1074 8 1078 8 8 61 16 78 12 6 -1 42 -4 81 -8z"/>
</g>
</svg>
